<svg width="24" height="24" viewBox="0 0 24 24" fill="none" xmlns="http://www.w3.org/2000/svg">
<rect width="24" height="24" rx="4" fill="white" fill-opacity="0.3"/>
<g clip-path="url(#clip0_8_4299)">
<path d="M8.5 13.5C8.03406 13.5 7.80109 13.5 7.61732 13.4239C7.37229 13.3224 7.17761 13.1277 7.07612 12.8827C7 12.6989 7 12.4659 7 12V8.6C7 8.03995 7 7.75992 7.10899 7.54601C7.20487 7.35785 7.35785 7.20487 7.54601 7.10899C7.75992 7 8.03995 7 8.6 7H12C12.4659 7 12.6989 7 12.8827 7.07612C13.1277 7.17761 13.3224 7.37229 13.4239 7.61732C13.5 7.80109 13.5 8.03406 13.5 8.5M12.1 17H15.4C15.9601 17 16.2401 17 16.454 16.891C16.6422 16.7951 16.7951 16.6422 16.891 16.454C17 16.2401 17 15.9601 17 15.4V12.1C17 11.5399 17 11.2599 16.891 11.046C16.7951 10.8578 16.6422 10.7049 16.454 10.609C16.2401 10.5 15.9601 10.5 15.4 10.5H12.1C11.5399 10.5 11.2599 10.5 11.046 10.609C10.8578 10.7049 10.7049 10.8578 10.609 11.046C10.5 11.2599 10.5 11.5399 10.5 12.1V15.4C10.5 15.9601 10.5 16.2401 10.609 16.454C10.7049 16.6422 10.8578 16.7951 11.046 16.891C11.2599 17 11.5399 17 12.1 17Z" stroke="white" stroke-width="1.4" stroke-linecap="round" stroke-linejoin="round"/>
</g>
<defs>
<clipPath id="clip0_8_4299">
<rect width="12" height="12" fill="white" transform="translate(6 6)"/>
</clipPath>
</defs>
</svg>
